<?xml version="1.0" encoding="UTF-8"?>
<!DOCTYPE svg PUBLIC "-//W3C//DTD SVG 1.1//EN" "http://www.w3.org/Graphics/SVG/1.1/DTD/svg11.dtd">
<!-- Creator: CorelDRAW -->
<svg xmlns="http://www.w3.org/2000/svg" xml:space="preserve" version="1.1" style="shape-rendering:geometricPrecision; text-rendering:geometricPrecision; image-rendering:optimizeQuality; fill-rule:evenodd; clip-rule:evenodd"
viewBox="0 0 200 100"
 xmlns:xlink="http://www.w3.org/1999/xlink"
 xmlns:xodm="http://www.corel.com/coreldraw/odm/2003">
 <defs>
  <style type="text/css">
   <![CDATA[
    .fil0 {fill:none}
   ]]>
  </style>
 </defs>
 <g id="Layer_x0020_1">
  <metadata id="CorelCorpID_0Corel-Layer"/>
  <rect class="fil0" width="200" height="100"/>
  <g id="_2359355850848">
   <path class="fil1" d="M10.18 48.45c2.75,-1.08 5.55,-2.13 8.34,-3.23 -2.41,-0.64 -4.8,-1.28 -7.16,-1.93 0.51,-1.34 1.16,-2.65 2.02,-4.01 2.59,0.93 5.25,1.83 7.88,2.76 -0.91,-2.67 -1.8,-5.31 -2.68,-7.9 1.26,-0.88 2.56,-1.51 3.93,-2.03 0.67,2.4 1.35,4.78 1.98,7.17 1.05,-2.79 2.15,-5.56 3.21,-8.34 1.07,-0.09 2.09,-0.07 3.17,0 1.05,2.8 2.13,5.57 3.15,8.35 0.68,-2.4 1.32,-4.78 2,-7.2 1.32,0.53 2.63,1.17 3.96,2.07 -0.91,2.61 -1.84,5.24 -2.77,7.89 2.64,-0.91 5.31,-1.81 7.99,-2.72 0.89,1.33 1.53,2.64 2.06,3.98 -2.47,0.65 -4.94,1.29 -7.31,1.93 2.76,1.08 5.62,2.15 8.46,3.23 0.08,1.08 0.09,2.14 -0.02,3.22 -2.85,1.07 -5.72,2.15 -8.54,3.23 2.43,0.66 4.87,1.34 7.31,2 -0.56,1.4 -1.22,2.64 -2.13,3.91 -2.64,-0.9 -5.25,-1.81 -7.91,-2.71 0.9,2.63 1.79,5.26 2.69,7.88 -1.37,0.88 -2.67,1.53 -4.03,2.06 -0.6,-2.4 -1.24,-4.8 -1.87,-7.22 -1.08,2.82 -2.2,5.59 -3.25,8.36 -1.07,0.1 -2.12,0.11 -3.21,0 -1.03,-2.75 -2.06,-5.53 -3.09,-8.35 -0.67,2.41 -1.33,4.81 -2.05,7.2 -1.36,-0.55 -2.62,-1.17 -3.94,-2.02 0.94,-2.63 1.9,-5.26 2.81,-7.9 -2.68,0.92 -5.29,1.83 -7.9,2.73 -0.81,-1.26 -1.44,-2.52 -1.98,-3.91 2.38,-0.67 4.73,-1.34 7.17,-2.01 -2.81,-1.09 -5.57,-2.17 -8.32,-3.24 -0.08,-1.09 -0.05,-2.17 0.03,-3.25zm-5.19 16.47c0,0.14 0.21,0.16 0.24,0.03 0.91,-3.43 1.82,-6.85 2.73,-10.29 1.39,6.45 5.61,11.83 11.31,14.77 -4.8,0.01 -9.55,0.01 -14.28,0.02l0 4.87 48.59 0 0 -39.06c0,-0.17 -0.25,-0.19 -0.29,-0.03 -0.91,3.42 -1.83,6.83 -2.71,10.25 -1.41,-6.55 -5.76,-12.03 -11.61,-14.95 4.91,0 9.85,0.02 14.61,0.02l0 -4.87 -48.59 0 0 39.24zm19.93 -12.09l4.6 0.68 -4.07 -2.25c-1.59,-0.96 -1.02,-3.01 0.83,-2.72l1.58 0.3 2.74 1.5c0.41,0.24 1.19,0.66 1.25,1.11l-3.97 -0.81 4.06 2.28c1.58,0.83 0.89,2.73 -0.83,2.51 -1.49,-0.18 -2.95,-0.4 -4.4,-0.62 1.32,0.68 2.61,1.36 3.93,2.02 0.54,0.26 -5.21,-0.68 -6.57,-1.53 -1.55,-0.98 -0.97,-2.7 0.85,-2.47zm2.84 -8.04l4.49 0.66 -3.9 -2c-0.62,-0.28 4.15,0.2 6.27,1.42 1.46,0.89 0.89,2.71 -0.81,2.47l-4.46 -0.67 4 2.04c1.35,0.7 0.95,2.1 -0.2,2.74 0.02,-0.66 -0.19,-0.87 -0.93,-1.3l-5.29 -2.93c-1.56,-0.86 -0.94,-2.7 0.83,-2.43zm-14.86 5.28c2.72,1.09 5.5,2.18 8.32,3.27 0,1.61 -0.04,3.19 -0.04,4.79 1.62,0 3.19,0 4.75,0 1.07,2.78 2.1,5.57 3.14,8.34 1.1,-2.77 2.18,-5.56 3.29,-8.35 1.58,0 3.17,0 4.76,0 0,-1.6 0.05,-3.18 0.05,-4.78 2.78,-1.09 5.57,-2.18 8.43,-3.27 -2.82,-1.09 -5.65,-2.15 -8.39,-3.23 0,-1.6 0,-3.22 0,-4.79 -1.61,0 -3.19,0 -4.77,0 -1.06,-2.82 -2.1,-5.6 -3.18,-8.39 -1.08,2.78 -2.16,5.56 -3.23,8.38 -1.57,0 -3.15,0 -4.77,0 0,1.58 0,3.18 0,4.79 -2.82,1.07 -5.64,2.15 -8.36,3.24zm70.46 18.58l-1.11 0c-0.13,0 -0.17,-0.1 -0.16,-0.21l0.43 -1.5 1.32 0 -0.48 1.71zm1.5 -2.51l-3.13 0c-0.22,0 -0.36,0.15 -0.42,0.37l-0.67 2.49c-0.05,0.3 0.15,0.45 0.42,0.44l3.42 0 0.73 -2.78c0.08,-0.32 0.02,-0.52 -0.35,-0.52zm6.56 2.8c-0.17,0 -0.2,-0.04 -0.18,-0.19l0.16 -0.76 0.56 0.83c-0.2,0.16 -0.29,0.12 -0.54,0.12zm1.89 -0.16l-0.23 -0.35 0.41 -0.34c0.1,-0.1 0.17,-0.22 0.2,-0.35l0.05 -0.25 -0.5 0c-0.03,0.12 -0.04,0.26 -0.13,0.35l-0.25 0.23 -0.57 -0.84c-0.11,-0.19 -0.12,-0.31 0.12,-0.31l0.61 0c0.22,0 0.29,0 0.49,0.09l0.03 -0.59 -1.98 0c-0.51,0 -0.9,0.41 -0.61,0.87l0.23 0.37 -0.29 0c-0.19,0 -0.34,0.06 -0.45,0.18 -0.1,0.11 -0.18,0.27 -0.23,0.51 -0.03,0.17 -0.09,0.4 -0.09,0.58 -0.01,0.42 0.28,0.51 0.65,0.51l0.75 0c0.33,0 0.44,-0.06 0.67,-0.27 0.08,0.17 0.19,0.27 0.38,0.27l1.19 0 0.18 -0.57c-0.21,0.12 -0.47,0.11 -0.63,-0.09zm-17.71 -0.85l0.31 -1.19c0.09,-0.34 -0.22,-0.6 -0.55,-0.6l-3.4 0 -0.95 3.3 1.44 0 0.69 -2.46 1.4 0 -0.19 0.63 -1.02 0 -0.22 0.78 0.4 0 0.54 1.05 1.46 0 -0.62 -1.03c0.39,0 0.63,-0.24 0.71,-0.48zm12.25 -1.79l-0.51 0.58 -0.17 -0.27c-0.07,-0.12 -0.19,-0.31 -0.34,-0.31l-1.33 0 0.95 1.58 -1.54 1.72 1.48 0 0.68 -0.69 0.42 0.69 1.52 0 -1.02 -1.64 1.61 -1.66 -1.75 0zm37.98 0.58l-0.21 0.8c-0.14,0.49 0.4,0.57 0.71,0.57l2.41 0c-0.09,0.43 -0.17,0.69 -0.64,0.69l-2.81 0 -0.19 0.66 3.97 0c0.41,0 0.74,-0.26 0.86,-0.66l0.22 -0.81c0.12,-0.42 -0.12,-0.54 -0.5,-0.54l-2.4 0 0.07 -0.28c0.08,-0.29 0.27,-0.29 0.53,-0.29l2.6 -0.01 0.2 -0.71 -3.9 0c-0.38,0 -0.82,0.16 -0.92,0.58zm-8.5 1.77l0.47 -1.52 2.62 0 0.24 -0.83 -4.11 0 -0.83 2.59c-0.1,0.31 0.25,0.71 0.58,0.71l3.38 0 0.22 -0.8 -2.37 0.01c-0.09,0 -0.21,-0.05 -0.2,-0.16zm0.44 -0.38l1.96 0 0.22 -0.73 -1.95 0 -0.23 0.73zm7.1 -0.18l0.33 -1.19c0.08,-0.34 -0.24,-0.6 -0.56,-0.6l-3.41 0 -0.95 3.3 1.44 0 0.69 -2.46 1.41 0 -0.19 0.63 -1.03 0 -0.22 0.78 0.41 0 0.53 1.05 1.47 0 -0.61 -1.03c0.38,0 0.62,-0.24 0.69,-0.48zm-55.32 -1.79l-1.09 0 -2.84 3.3 1.19 0 2.01 -2.31 0.22 0.88 -0.59 0 -0.67 0.82 1.46 0 0.16 0.61 1.42 0 -0.66 -2.7c-0.09,-0.36 -0.23,-0.6 -0.61,-0.6zm45.79 0l-3.4 0 -0.95 3.3 1.45 0 0.68 -2.46 1.4 0 -0.23 0.63 -0.98 0 -0.21 0.79 1.74 0c0.39,0 0.62,-0.25 0.69,-0.48l0.37 -1.17c0.08,-0.33 -0.23,-0.61 -0.56,-0.61zm-14.97 0.9c0.13,-0.46 0.18,-0.9 -0.42,-0.9 -1.28,-0.01 -2.57,0 -3.85,0l-0.24 0.85 3.08 0c0.1,0 0.06,0.08 0.05,0.13l-0.44 1.32c-0.03,0.09 -0.08,0.19 -0.21,0.19l-1.42 0 0.37 -1.19 -1.54 0 -0.6 2 4.04 0c0.34,0 0.47,-0.25 0.56,-0.52 0.21,-0.63 0.42,-1.25 0.62,-1.88zm4.61 2.4l1.01 0 0.25 -1.06 -0.47 -1.75 -0.79 2.81zm-1.42 -3.3l-1.09 0 -2.86 3.3 1.2 0 2.01 -2.31 0.22 0.88 -0.58 0 -0.68 0.82 1.46 0 0.17 0.61 1.41 0 -0.66 -2.7c-0.08,-0.36 -0.23,-0.6 -0.6,-0.6zm5.95 0l-1.6 1.82 -0.41 -1.51c-0.04,-0.15 -0.19,-0.31 -0.35,-0.31l-1.16 0 0.88 3.3 1.08 0 1.55 -1.82 -0.62 1.82 1.47 0 0.9 -3.3 -1.74 0zm-28.87 0.58c0.02,-0.34 -0.19,-0.54 -0.61,-0.58l-3.3 0 -0.23 0.84 3.14 0c0.22,0 0.18,0.4 -0.13,0.4l-1.32 0 -0.21 0.73 1.23 0c0.32,0 0.22,0.54 -0.11,0.53l-1.63 0 0.38 -1.26 -1.46 0 -0.56 2.06 3.7 0c0.69,-0.02 0.94,-1.45 0.51,-1.66 0.43,-0.04 0.59,-0.68 0.6,-1.06zm-21.89 0.15l2.67 0 0.24 -0.73 -4.19 0 -0.82 2.55c-0.15,0.42 0.25,0.75 0.65,0.75l3.31 0 0.67 -2.06 -1.9 -0.01 -0.25 0.77 0.72 0 -0.18 0.52 -1.22 0c-0.15,0 -0.23,-0.15 -0.19,-0.27l0.49 -1.52zm6.77 1.24l0.21 -0.73 -1.93 0 -0.24 0.73 1.96 0zm-2.22 0.54c-0.07,0 -0.2,-0.05 -0.18,-0.16l0.47 -1.52 2.67 0 0.25 -0.83 -4.18 0 -0.83 2.59c-0.09,0.31 0.25,0.71 0.58,0.71l3.38 0 0.25 -0.8 -2.41 0.01zm72.72 -20.29l1.36 -4.88 4.3 0 -1.52 5.56 -3.64 0c-0.41,0 -0.59,-0.31 -0.5,-0.68zm-3.37 3.26l11.1 0 2.38 -9.08c0.27,-1.03 0.06,-1.64 -1.12,-1.64l-10.2 0c-0.72,0 -1.17,0.45 -1.35,1.19l-2.2 8.1c-0.16,0.95 0.47,1.47 1.39,1.43zm-55.59 -2.18l0.72 -2.62c0.39,-1.35 -0.39,-1.76 -1.65,-1.76l-7.81 0 0.26 -0.92c0.23,-0.92 0.89,-0.93 1.73,-0.93l8.44 -0.01 0.63 -2.3 -12.64 0c-1.27,0 -2.68,0.5 -3,1.88l-0.7 2.57c-0.44,1.61 1.3,1.86 2.3,1.86l7.84 0c-0.28,1.39 -0.52,2.23 -2.07,2.23l-9.15 0 -0.62 2.18 12.93 0c1.34,0 2.4,-0.86 2.79,-2.18zm27.04 2.18l4.94 -5.95 -1.89 5.95 4.76 0 2.75 -10.72 -5.68 0 -5.1 5.9 -1.41 -4.93c-0.15,-0.47 -0.63,-0.97 -1.15,-0.97l-3.79 0 3.09 10.72 3.48 0zm-5.62 -3.45l-1.63 -5.69 -2.41 9.14 3.29 0 0.75 -3.45zm51.72 -2.08l-2.01 -3.85 -2.46 9.38 3.05 0 1.42 -5.53zm35.72 -2.88l8.45 -0.01 0.64 -2.3 -12.65 0c-1.27,0 -2.68,0.5 -3,1.88l-0.7 2.57c-0.43,1.61 1.29,1.86 2.3,1.86l7.84 0c-0.28,1.39 -0.52,2.23 -2.07,2.23l-9.14 0 -0.63 2.18 12.93 0c1.34,0 2.4,-0.86 2.79,-2.18l0.72 -2.62c0.4,-1.35 -0.38,-1.76 -1.64,-1.76l-7.82 0 0.27 -0.92c0.23,-0.92 0.88,-0.93 1.71,-0.93zm-26.97 8.41l3.01 -10.72 -3.91 0 -1.77 5.34 -2.23 -4.18c-0.27,-0.46 -0.83,-1.16 -1.56,-1.16l-3.83 0 5.68 10.71 4.61 0.01zm13.19 -10.72l-3.53 0 -9.07 10.72 3.89 0 6.38 -7.52 0.77 2.88 -1.89 0 -2.16 2.65 4.76 0 0.56 1.99 4.61 0 -2.31 -8.83c-0.31,-1.11 -0.8,-1.89 -2.01,-1.89zm-91.52 10.72l6.39 -7.52 0.77 2.88 -1.9 0 -2.16 2.65 4.76 0 0.56 1.99 4.61 0 -2.31 -8.83c-0.3,-1.11 -0.79,-1.89 -2.01,-1.89l-3.53 0 -9.07 10.72 3.89 0zm37.17 -4.41l7.85 0c-0.28,1.39 -0.51,2.23 -2.07,2.23l-9.15 0 -0.61 2.18 12.93 0c1.33,0 2.38,-0.86 2.77,-2.18l0.73 -2.62c0.4,-1.35 -0.38,-1.76 -1.64,-1.76l-7.82 0 0.25 -0.92c0.25,-0.92 0.9,-0.93 1.73,-0.93l8.45 -0.01 0.64 -2.3 -12.64 0c-1.28,0 -2.7,0.5 -3.01,1.88l-0.7 2.57c-0.43,1.61 1.3,1.86 2.29,1.86zm-56.65 13.14l-1.02 -3.6 -1.61 5.85 2.11 0 0.52 -2.25zm3.77 2.25l3.2 -3.81 -1.26 3.81 3.06 0 1.81 -6.86 -3.63 0 -3.29 3.77 -0.89 -3.16c-0.08,-0.29 -0.39,-0.61 -0.72,-0.61l-2.62 0 1.9 6.86 2.44 0zm92.78 -4.9l2.86 0 -1.32 4.9 2.82 0 1.34 -4.9 2.85 0 0.56 -1.96 -8.53 0 -0.58 1.96zm-2.33 -1.96l-7.09 0 -1.83 6.86 2.99 0 1.34 -5.14 2.92 0 -0.36 1.33 -2.14 0 -0.42 1.63 0.85 0 1.14 2.18 3.05 0 -1.32 -2.14c0.79,0 1.3,-0.52 1.43,-1.02l0.63 -2.45c0.16,-0.72 -0.52,-1.25 -1.19,-1.25zm-13.62 5.21l-2.33 0c-0.26,0 -0.38,-0.21 -0.31,-0.44l0.86 -3.12 2.76 0 -0.98 3.56zm3.11 -5.21l-6.53 0c-0.46,0 -0.74,0.29 -0.86,0.77l-1.41 5.18c-0.1,0.6 0.3,0.93 0.89,0.91l7.1 0 1.52 -5.81c0.18,-0.66 0.05,-1.05 -0.71,-1.05zm-66.72 5.21l-2.33 0c-0.26,0 -0.38,-0.21 -0.32,-0.44l0.86 -3.12 2.77 0 -0.98 3.56zm-3.43 -5.21c-0.45,0 -0.74,0.29 -0.86,0.77l-1.41 5.18c-0.1,0.6 0.3,0.93 0.89,0.91l7.11 0 1.51 -5.81c0.18,-0.66 0.05,-1.05 -0.7,-1.05l-6.54 0zm20.26 4.77l0.86 -3.12 2.77 0 -0.98 3.56 -2.34 0c-0.25,0 -0.38,-0.21 -0.31,-0.44zm-1.64 -4l-1.41 5.18c-0.1,0.6 0.3,0.93 0.89,0.91l7.1 0 1.53 -5.81c0.18,-0.66 0.03,-1.05 -0.72,-1.05l-6.53 0c-0.46,0 -0.75,0.29 -0.86,0.77zm-5.94 6.09l1.32 -4.9 2.84 0 0.57 -1.96 -8.52 0 -0.59 1.96 2.85 0 -1.31 4.9 2.84 0zm24.46 -3.16l0.62 -2.45c0.16,-0.72 -0.52,-1.25 -1.19,-1.25l-7.09 0 -1.82 6.86 2.98 0 1.34 -5.14 2.93 0 -0.38 1.33 -2.13 0 -0.41 1.63 0.84 0 1.14 2.18 3.05 0 -1.32 -2.14c0.8,0 1.31,-0.52 1.44,-1.02zm22.46 -3.7l-7.09 0 -1.84 6.86 3.01 0 1.33 -5.14 2.92 0 -0.37 1.33 -2.13 0 -0.42 1.63 3.74 0c0.78,0 1.29,-0.51 1.42,-0.99l0.61 -2.44c0.16,-0.7 -0.5,-1.25 -1.18,-1.25zm-15.22 1.48l5.4 -0.01 0.4 -1.47 -8.08 0c-0.82,0 -1.72,0.32 -1.93,1.2l-0.45 1.64c-0.27,1.03 0.84,1.2 1.48,1.2l5.01 0c-0.18,0.88 -0.33,1.43 -1.32,1.43l-5.85 0 -0.4 1.39 8.27 0c0.86,0 1.53,-0.55 1.79,-1.39l0.45 -1.68c0.26,-0.86 -0.24,-1.13 -1.05,-1.13l-5 0 0.17 -0.59c0.15,-0.59 0.57,-0.59 1.11,-0.59z"/>
  </g>
 </g>
</svg>
